<?xml version="1.0" encoding="utf-8"?>
<!-- Generator: Adobe Illustrator 22.0.1, SVG Export Plug-In . SVG Version: 6.00 Build 0)  -->
<svg version="1.1" id="Layer_1" xmlns="http://www.w3.org/2000/svg" xmlns:xlink="http://www.w3.org/1999/xlink" x="0px" y="0px"
	 viewBox="0 0 523 167" style="enable-background:new 0 0 523 167;" xml:space="preserve">
<style type="text/css">
	.st0{fill:#F8FF13;}
</style>
<g>
	<rect width="523" height="167"/>
	<g>
		<path class="st0" d="M110.2,78.6l5.1-18.1h24c12.6,0,20.3-5.7,23.8-17.9L165,36c4.5-15.4-2.8-25-18.7-25H42L22.6,78.6H110.2z
			 M146.2,29.1l-4.1,14.8h-21.9l4.2-14.7L146.2,29.1L146.2,29.1z"/>
		<path class="st0" d="M173.9,78.6l6.4-11.4H210v11.4h19.5V10.9h-38.3l-39.9,67.8H173.9z M202,29.3h8.1v21.6h-20.4L202,29.3z"/>
		<path class="st0" d="M309.2,42l1.7-6.1c4.5-15.6-2.8-25-18.7-25h-37.1l-19.4,67.8H256l5.3-18.6h12.6l5.7,18.6h20.9l-6.1-19.9
			C301.8,56.5,306.6,51,309.2,42 M270.1,29.1H292l-4.1,14.7H266L270.1,29.1z"/>
		<polygon class="st0" points="328.2,78.6 347.6,10.9 327.2,10.9 307.9,78.6 		"/>
		<polygon class="st0" points="203.8,88.3 180.9,115.3 171.5,88.3 83.7,88.3 64.3,156.1 151.9,156.1 162.6,118.6 169.7,139.6 
			182.8,139.6 201.7,117.3 190.5,156.1 210.8,156.1 230.1,88.3 		"/>
		<path class="st0" d="M257.3,88.3l-40,67.8h22.6l6.4-11.4h29.7V156h19.5V88.4L257.3,88.3L257.3,88.3z M255.8,128.3l12.2-21.6h8.1
			v21.6H255.8z"/>
		<polygon class="st0" points="364.2,107.7 369.7,88.3 308.1,88.3 302.6,107.7 324.9,107.7 311,156.1 331.3,156.1 345.2,107.7 		"/>
		<path class="st0" d="M391.3,107.7h30.8l5.6-19.3h-32.8c-12.6,0-20.3,5.7-23.8,17.9l-7.2,24.8c-4.6,15.8,2.8,25,18.7,25h25.5
			l5.5-19.3h-30.8L391.3,107.7z"/>
		<polygon class="st0" points="480.1,88.3 473.1,112.5 449.9,112.5 456.8,88.3 436.5,88.3 417.2,156.1 437.5,156.1 444.4,131.8 
			467.6,131.8 460.7,156.1 481.1,156.1 500.4,88.3 		"/>
	</g>
</g>
</svg>
